<?xml version="1.0" encoding="utf-8"?>
<!-- Generator: Adobe Illustrator 19.1.0, SVG Export Plug-In . SVG Version: 6.00 Build 0)  -->
<svg version="1.1" xmlns="http://www.w3.org/2000/svg" xmlns:xlink="http://www.w3.org/1999/xlink" x="0px" y="0px"
	 viewBox="0 0 50 50" style="enable-background:new 0 0 50 50;" xml:space="preserve">
<style type="text/css">
	.st0{fill:#FFFFFF;}
	.st1{fill:#ABABAB;}
</style>
<g id="Layer_1">
</g>
<g id="Layer_2">
</g>
<g id="Layer_3">
</g>
<g id="Layer_4">
</g>
<g id="Layer_5">
	<rect x="34" y="23.1" class="st1" width="2.9" height="9"/>
	<rect x="31.4" y="23.1" class="st1" width="8.3" height="0.8"/>
	<rect x="0" y="32.5" class="st1" width="50" height="0.6"/>
	<rect x="27.7" y="23.9" class="st1" width="2.9" height="8.3"/>
	<rect x="27.7" y="20.7" class="st1" width="2.9" height="2.4"/>
	<rect x="40.5" y="23.1" class="st1" width="8.1" height="0.6"/>
	<rect x="40.2" y="28.1" class="st1" width="8.5" height="0.6"/>
	<rect x="40.2" y="31.6" class="st1" width="8.5" height="0.6"/>
	<rect x="40.2" y="23.1" class="st1" width="2.9" height="9.1"/>
	<rect x="45.8" y="23.1" class="st1" width="2.9" height="5.6"/>
	<rect x="23.2" y="15.6" class="st1" width="2.9" height="16.5"/>
	<rect x="17.6" y="23" class="st1" width="2.9" height="9.2"/>
	<rect x="17.6" y="23" class="st1" width="8.5" height="0.8"/>
	<rect x="13.6" y="23" class="st1" width="2.7" height="9.2"/>
	<rect x="8.3" y="26.5" class="st1" width="2.7" height="5.7"/>
	<rect x="3" y="31.6" class="st1" width="13.3" height="0.6"/>
	<rect x="3" y="23" class="st1" width="2.7" height="9.2"/>
</g>
</svg>
