<?xml version="1.0" encoding="utf-8"?>
<!-- Generator: Adobe Illustrator 19.1.0, SVG Export Plug-In . SVG Version: 6.00 Build 0)  -->
<svg version="1.1" id="Layer_1" xmlns="http://www.w3.org/2000/svg" xmlns:xlink="http://www.w3.org/1999/xlink" x="0px" y="0px"
	 viewBox="-319 256 160 90" style="enable-background:new -319 256 160 90;" xml:space="preserve">
<style type="text/css">
	.st0{fill:#FFFFFF;}
</style>
<path class="st0" d="M-319,256.1v24.4l8,4.7l-8,4.6v1.1l8,4.7l-8,4.6v1.1l8,4.7l-8,4.6v1.1l8,4.7l-8,4.6v1.1l8,4.7l-8,4.6v1.1l8,4.7
	l-8,4.6v4.2l11.5-7.4v-41.8l8.5-4.9v-12.6l6.9-4.7h83.8l7.5-5v-13.5H-319z M-310.2,275.3l8.3,4.4l-8.3,4.9V275.3z M-318.9,270l8,4.7
	l-8,4.7C-318.9,279.4-318.9,270-318.9,270z M-310.8,336.6l-8-4.6l8-4.7C-310.8,327.3-310.8,336.6-310.8,336.6z M-310.8,326.2l-8-4.6
	l8-4.7C-310.8,316.9-310.8,326.2-310.8,326.2z M-310.8,315.9l-8-4.6l8-4.7V315.9z M-310.8,305.5l-8-4.7l8-4.7V305.5z M-310.8,294.9
	l-8-4.6l8-4.7C-310.8,285.6-310.8,294.9-310.8,294.9z M-310.8,284.6l-8-4.6l8-4.7V284.6z M-310.2,294.9v-9.3l8.3,4.4L-310.2,294.9z
	 M-301.7,289.5l-8.3-4.3l8.3-5V289.5z"/>
</svg>
