<?xml version="1.0" encoding="utf-8"?>
<!-- Generator: Adobe Illustrator 19.1.0, SVG Export Plug-In . SVG Version: 6.00 Build 0)  -->
<svg version="1.1" id="Layer_1" xmlns="http://www.w3.org/2000/svg" xmlns:xlink="http://www.w3.org/1999/xlink" x="0px" y="0px"
	 viewBox="0 0 550 550" style="enable-background:new 0 0 550 550;" xml:space="preserve">
<style type="text/css">
	.st0{fill:#FF5E48;}
	.st1{fill:#5599DD;}
	.st2{fill:#99DD55;}
</style>
<g>
	<path class="st0" d="M278.9,0L40.7,137.5v275L278.9,550l238.2-137.5v-275L278.9,0z M453.6,375.9l-170.9,98.7l0.5,49.3l166.8-97.3v9
		l-171.2,99.1l-0.5-0.3l-85.8-49.8v-9l83,48.3l-0.5-49.3l-170.9-98.7V174.1L278.9,73.2l174.7,100.9V375.9z"/>
	<polygon class="st1" points="275.1,376.5 189.1,326.9 189.1,224.3 111.3,179.4 111.3,371.8 275.1,466.4 	"/>
	<polygon class="st1" points="112.3,177.6 190.1,222.6 278.9,171.3 368.7,223.1 368.7,326.9 282.7,376.5 282.7,466.4 446.5,371.8 
		446.5,178.2 278.9,81.4 	"/>
	<polygon class="st2" points="360.6,226.6 278.9,179.5 197.2,226.6 278.9,273.8 	"/>
	<polygon class="st2" points="275.1,277 278.9,279.2 282.7,277 282.7,368.3 361.6,322.8 361.6,228.4 278.9,276.2 196.2,228.4 
		196.2,322.8 275.1,368.3 	"/>
</g>
</svg>
