<?xml version="1.0" encoding="utf-8"?>
<!-- Generator: Adobe Illustrator 19.1.0, SVG Export Plug-In . SVG Version: 6.00 Build 0)  -->
<svg version="1.1" xmlns="http://www.w3.org/2000/svg" xmlns:xlink="http://www.w3.org/1999/xlink" x="0px" y="0px"
	 viewBox="0 0 200 200" style="enable-background:new 0 0 200 200;" xml:space="preserve">
<style type="text/css">
	.st0{fill:#5A98D2;}
	.st1{fill:#9CCC57;}
	.st2{fill:#F15F4C;}
</style>
<g id="Layer_1">
	<g>
		<circle class="st0" cx="100.7" cy="100.2" r="30.2"/>
		<g>
			<path class="st0" d="M23.8,63.6c-1.2,0-2.2,1-2.2,2.2v69.6c0,1.2,1,2.2,2.2,2.2h2.9v-74H23.8z"/>
			<path class="st0" d="M62.6,63.6h-4.1v74h4.1c1.2,0,2.2-1,2.2-2.2V65.8C64.8,64.6,63.8,63.6,62.6,63.6z"/>
		</g>
		<path class="st0" d="M54.7,141.2H30.3c-1.2,0-2.2-1-2.2-2.2V61.7c0-1.2,1-2.2,2.2-2.2h24.3c1.2,0,2.2,1,2.2,2.2V139
			C56.9,140.2,55.9,141.2,54.7,141.2z"/>
		<path class="st0" d="M106.6,159.5l-37.9-21.2c-0.9-0.5-1.4-1.4-1.4-2.5l0.1-70.6c0-1,0.5-1.9,1.4-2.4l37.7-21.7
			c5.8-3.4,13.1,0.9,13.1,7.6l0,103.2C119.6,158.5,112.4,162.8,106.6,159.5z"/>
	</g>
	<g>
		<path class="st1" d="M138,100.2c0,10.9-3.8,19.1-8.9,25.1c-1.3,1.5-1,3.8,0.6,4.9l1.8,1.2c2.2,1.5,5.1,1,6.7-1.1
			c6.6-8.5,10.1-18.8,10.1-30.1c0-11.2-3.4-21.3-9.7-29.7c-1.6-2.1-4.6-2.6-6.8-1.1l-0.3,0.2c-2.4,1.6-2.8,4.9-1.1,7.2
			C134.8,82.6,138,90.2,138,100.2z"/>
		<path class="st1" d="M156.3,100.2c0,13.1-3.8,24.8-10.9,34.7c-1.6,2.3-1.1,5.4,1.2,7l0.4,0.2c2.2,1.5,5.3,1,6.8-1.2
			c8.3-11.5,12.7-25.4,12.7-40.7c0-15.2-4.4-28.9-12.5-40.3c-1.6-2.2-4.6-2.8-6.9-1.2l-0.4,0.2c-2.3,1.6-2.9,4.7-1.2,7
			C152.6,75.6,156.3,87.2,156.3,100.2z"/>
		<path class="st1" d="M174.3,100.2c0,16.8-4.9,32-13.9,44.6c-1.6,2.3-1,5.4,1.3,7l0.4,0.2c2.2,1.5,5.2,1,6.8-1.2
			c10.2-14.3,15.8-31.6,15.8-50.7c0-18.9-5.4-36.1-15.5-50.3c-1.6-2.2-4.6-2.8-6.9-1.3l-0.4,0.2c-2.3,1.6-2.9,4.7-1.3,7
			C169.5,68.3,174.3,83.5,174.3,100.2z"/>
	</g>
</g>
<g id="Layer_2">
</g>
</svg>
