<?xml version="1.0" encoding="utf-8"?>
<!-- Generator: Adobe Illustrator 19.1.0, SVG Export Plug-In . SVG Version: 6.00 Build 0)  -->
<svg version="1.1" xmlns="http://www.w3.org/2000/svg" xmlns:xlink="http://www.w3.org/1999/xlink" x="0px" y="0px"
	 viewBox="0 0 200 200" style="enable-background:new 0 0 200 200;" xml:space="preserve">
<style type="text/css">
	.st0{fill:#5A98D2;}
	.st1{fill:#9CCC57;}
	.st2{fill:#F15F4C;}
</style>
<g id="Layer_1">
</g>
<g id="Layer_2">
	<g>
		<circle class="st0" cx="102.2" cy="99.9" r="30.2"/>
		<g>
			<path class="st0" d="M25.2,63.4c-1.2,0-2.2,1-2.2,2.2v69.6c0,1.2,1,2.2,2.2,2.2h2.9v-74H25.2z"/>
			<path class="st0" d="M64.1,63.4h-4.1v74h4.1c1.2,0,2.2-1,2.2-2.2V65.6C66.3,64.4,65.3,63.4,64.1,63.4z"/>
		</g>
		<path class="st0" d="M56.2,141H31.8c-1.2,0-2.2-1-2.2-2.2V61.4c0-1.2,1-2.2,2.2-2.2h24.3c1.2,0,2.2,1,2.2,2.2v77.3
			C58.4,140,57.4,141,56.2,141z"/>
		<path class="st0" d="M108,159.2l-37.9-21.2c-0.9-0.5-1.4-1.4-1.4-2.5L68.8,65c0-1,0.5-1.9,1.4-2.4L108,40.8
			c5.8-3.4,13.1,0.9,13.1,7.6l0,103.2C121.1,158.3,113.9,162.5,108,159.2z"/>
	</g>
	<g>
		<path class="st2" d="M100,198.4c-53.9,0-97.8-43.9-97.8-97.8C2.2,46.7,46.1,2.8,100,2.8c53.9,0,97.8,43.9,97.8,97.8
			C197.8,154.6,153.9,198.4,100,198.4z M100,22.8c-42.9,0-77.8,34.9-77.8,77.8s34.9,77.8,77.8,77.8s77.8-34.9,77.8-77.8
			S142.9,22.8,100,22.8z"/>
		
			<rect x="90.9" y="13.6" transform="matrix(0.7499 0.6616 -0.6616 0.7499 92.3182 -41.3682)" class="st2" width="20" height="175.6"/>
	</g>
</g>
</svg>
