<?xml version="1.0" encoding="utf-8"?>
<!-- Generator: Adobe Illustrator 19.1.0, SVG Export Plug-In . SVG Version: 6.00 Build 0)  -->
<svg version="1.1" xmlns="http://www.w3.org/2000/svg" xmlns:xlink="http://www.w3.org/1999/xlink" x="0px" y="0px"
	 viewBox="0 0 200 200" style="enable-background:new 0 0 200 200;" xml:space="preserve">
<style type="text/css">
	.st0{fill:#5A98D2;}
	.st1{fill:#9CCC57;}
	.st2{fill:#828282;}
	.st3{display:none;}
	.st4{display:inline;fill:#828282;}
	.st5{fill:none;stroke:#F15F4C;stroke-width:13;stroke-miterlimit:10;}
</style>
<g id="Layer_1">
	<g>
		<circle class="st0" cx="100.7" cy="100.2" r="30.2"/>
		<path class="st0" d="M63.7,137.6h-40c-1.2,0-2.2-1-2.2-2.2V65.8c0-1.2,1-2.2,2.2-2.2h40c1.2,0,2.2,1,2.2,2.2v69.6
			C65.9,136.6,65,137.6,63.7,137.6z"/>
		<path class="st0" d="M115.4,164.4l-46.7-26.1c-0.9-0.5-1.4-1.4-1.4-2.5l0.1-70.6c0-1,0.5-1.9,1.4-2.4L115.4,36
			c1.9-1.1,4.2,0.3,4.2,2.5l0,123.6C119.6,164.1,117.3,165.5,115.4,164.4z"/>
	</g>
	<g>
		<path class="st1" d="M138,100.2c0,11-3.9,19.1-9,25.1c-1.3,1.5-1,3.8,0.7,4.9l3,2.1c1.4,1,3.3,0.7,4.4-0.6
			c7.3-8.7,11.1-19.5,11.1-31.4c0-11.8-3.7-22.4-10.8-31c-1.1-1.3-3-1.6-4.4-0.6l-3,2.1c-1.6,1.1-1.9,3.3-0.7,4.8
			C134.3,81.3,138,89.4,138,100.2z"/>
		<path class="st1" d="M156.3,100.2c0,13.6-4.2,25.9-11.9,36c-1.2,1.5-0.8,3.7,0.8,4.7l3.1,2.1c1.5,1,3.4,0.7,4.5-0.8
			c8.9-11.8,13.7-26.1,13.7-42.1c0-15.8-4.7-30-13.5-41.7c-1.1-1.4-3.1-1.8-4.5-0.8l-3.1,2.1c-1.6,1.1-1.9,3.2-0.8,4.7
			C152.2,74.5,156.3,86.7,156.3,100.2z"/>
		<path class="st1" d="M174.3,100.2c0,17.4-5.2,33.1-14.9,46c-1.1,1.5-0.8,3.6,0.8,4.7l3.1,2.1c1.5,1,3.5,0.6,4.5-0.8
			c10.8-14.5,16.7-32.3,16.7-52c0-19.6-5.8-37.2-16.5-51.7c-1.1-1.4-3.1-1.8-4.5-0.8l-3.1,2.1c-1.5,1.1-1.9,3.2-0.8,4.7
			C169.1,67.3,174.3,82.9,174.3,100.2z"/>
	</g>
</g>
<g id="Layer_2">
</g>
</svg>
