<?xml version="1.0" encoding="utf-8"?>
<!-- Generator: Adobe Illustrator 19.1.0, SVG Export Plug-In . SVG Version: 6.00 Build 0)  -->
<svg version="1.1" xmlns="http://www.w3.org/2000/svg" xmlns:xlink="http://www.w3.org/1999/xlink" x="0px" y="0px"
	 viewBox="0 0 200 200" style="enable-background:new 0 0 200 200;" xml:space="preserve">
<style type="text/css">
	.st0{fill:#5A98D2;}
	.st1{fill:#9CCC57;}
	.st2{fill:#828282;}
	.st3{display:none;}
	.st4{display:inline;fill:#828282;}
	.st5{fill:none;stroke:#F15F4C;stroke-width:13;stroke-miterlimit:10;}
</style>
<g id="Layer_1">
</g>
<g id="Layer_2">
	<g>
		<circle class="st2" cx="103.9" cy="100" r="29.3"/>
		<path class="st2" d="M68,136.4H29.4c-1.2,0-2.2-1-2.2-2.2V66.8c0-1.2,1-2.2,2.2-2.2H68c1.2,0,2.2,1,2.2,2.2v67.3
			C70.2,135.4,69.2,136.4,68,136.4z"/>
		<path class="st2" d="M118.2,162.4l-45.3-25.3c-0.9-0.5-1.4-1.4-1.4-2.4l0.1-68.5c0-1,0.5-1.9,1.4-2.4l45.2-26.1
			c1.8-1.1,4.1,0.3,4.1,2.4l0,119.8C122.3,162.1,120,163.4,118.2,162.4z"/>
	</g>
	<g class="st3">
		<path class="st4" d="M140.1,100c0,10.6-3.7,18.6-8.7,24.4c-1.2,1.5-0.9,3.6,0.6,4.7l3,2c1.4,0.9,3.2,0.7,4.3-0.6
			c7-8.5,10.8-18.9,10.8-30.5c0-11.4-3.6-21.7-10.5-30.1c-1.1-1.3-2.9-1.6-4.3-0.6l-2.9,2c-1.5,1.1-1.9,3.2-0.7,4.6
			C136.5,81.8,140.1,89.6,140.1,100z"/>
		<path class="st4" d="M157.8,100c0,13.2-4,25.1-11.5,34.9c-1.1,1.5-0.8,3.6,0.7,4.6l3,2.1c1.4,1,3.3,0.6,4.4-0.7
			c8.7-11.4,13.3-25.3,13.3-40.8c0-15.3-4.6-29.1-13.1-40.5c-1-1.4-3-1.7-4.4-0.7l-3,2.1c-1.5,1-1.8,3.1-0.7,4.6
			C153.9,75.2,157.8,87,157.8,100z"/>
		<path class="st4" d="M175.3,100c0,16.9-5.1,32.1-14.4,44.6c-1.1,1.5-0.7,3.5,0.8,4.6l3,2.1c1.4,1,3.4,0.6,4.4-0.8
			c10.5-14.1,16.2-31.3,16.2-50.4c0-19-5.6-36.1-16-50.1c-1-1.4-3-1.8-4.4-0.8l-3,2.1c-1.5,1-1.8,3.1-0.8,4.5
			C170.3,68.2,175.3,83.3,175.3,100z"/>
	</g>
	<g>
		<circle class="st5" cx="100" cy="100.6" r="87.8"/>
		<line class="st5" x1="42.8" y1="167.2" x2="158.9" y2="35.6"/>
	</g>
</g>
</svg>
