<?xml version="1.0" encoding="utf-8"?>
<!-- Generator: Adobe Illustrator 19.1.0, SVG Export Plug-In . SVG Version: 6.00 Build 0)  -->
<svg version="1.1" id="Layer_1" xmlns="http://www.w3.org/2000/svg" xmlns:xlink="http://www.w3.org/1999/xlink" x="0px" y="0px"
	 viewBox="4.3 95.5 342.5 264.8" style="enable-background:new 4.3 95.5 342.5 264.8;" xml:space="preserve">
<style type="text/css">
	.st0{fill:#FFFFFF;}
</style>
<path class="st0" d="M0,95.5v70.6l23.3,13.5L0,193v3.1l23.3,13.5L0,223v3.1l23.3,13.5L0,253v3.1l23.3,13.5L0,283v3.1l23.3,13.5
	L0,313v3.1l23.3,13.5L0,343v13l33.3-21.5V213.6L58,199.4v-36.5l20.1-13.5h242.8l21.6-14.4V95.5H0z M26.5,151.1l23.3,13.5L26.5,178
	V151.1z M0.3,135.9l23.3,13.5L0.3,162.9V135.9z M24.6,328L1.3,314.6l23.3-13.5C24.6,301.1,24.6,328,24.6,328z M24.6,298L1.3,284.6
	l23.3-13.5C24.6,271.1,24.6,298,24.6,298z M24.6,268L1.3,254.6l23.3-13.5C24.6,241.1,24.6,268,24.6,268z M24.6,238L1.3,224.6
	l23.3-13.5C24.6,211.1,24.6,238,24.6,238z M24.6,208L1.3,194.6l23.3-13.5C24.6,181.1,24.6,208,24.6,208z M24.6,178L1.3,164.6
	l23.3-13.5C24.6,151.1,24.6,178,24.6,178z M26.5,208v-26.9l23.3,13.5L26.5,208z M51.1,193l-23.3-13.4l23.3-13.5V193z"/>
</svg>
